# xmcd
#
# Track frame offsets: 
#        150
#        26915
#        66408
#        87875
#        115200
#        131235
#        162710
#        188560
#        213408
#        248623
#
# Disc length: 3596 seconds
#
# Revision: 0
# Processed by: cddbd v1.5.2PL0 Copyright (c) Steve Scherf et al.
# Submitted via: ExactAudioCopy v0.95a5
#
DISCID=910e0a0a
DTITLE=Jimmy Dawkins - Come Back Baby
DYEAR=1976
DGENRE=Blues
TTITLE0=Come Back Baby
TTITLE1=I Got Wise
TTITLE2=Big Duke's
TTITLE3=Cross Road Blues
TTITLE4=J.D.'s Jam
TTITLE5=Hard Road To Travel
TTITLE6=Nature Ball
TTITLE7=Blue Shadows Falling
TTITLE8=Ode To Billy Joe
TTITLE9=Pretty Woman
EXTD=
EXTT0=
EXTT1=
EXTT2=
EXTT3=
EXTT4=
EXTT5=
EXTT6=
EXTT7=
EXTT8=
EXTT9=
PLAYORDER=
